# xmcd
#
# Track frame offsets:
#	150
#	17767
#	32752
#	50564
#	66400
#	82369
#	100028
#	115728
#	132238
#	145716
#	159144
#	175787
#	192126
#	211574
#
# Disc length: 3020 seconds
#
# Revision: 3
# Processed by: cddbd v1.5.2PL0 Copyright (c) Steve Scherf et al.
# Submitted via: audiograbber 1.83.01
#
DISCID=b60bca0e
DTITLE=Hitz - Country 2006 Volume 7
DYEAR=2006
DGENRE=Country
TTITLE0=Dierks Bentley - Every Mile A Memory
TTITLE1=Carrie Underwood - Before He Cheats
TTITLE2=Kenny Chesney - You Save Me
TTITLE3=Alan Jackson - Like Red On A Rose
TTITLE4=The Wreckers - My, Oh My
TTITLE5=Lonestar - Mountains
TTITLE6=Eric Church - Two Pink Lines
TTITLE7=Little Big Town - Good As Gone
TTITLE8=John Anderson - If Her Lovin Don't Kill Me
TTITLE9=Ray Scott - I Didn't Come Here to Talk
TTITLE10=Gary Nichols - I Can't Love You Anymore
TTITLE11=Billy Currington - Good Directions
TTITLE12=Darryl Worley - I Just Came Back (From A War)
TTITLE13=Montgomery Gentry - Some People Change
EXTD=
EXTT0=
EXTT1=
EXTT2=
EXTT3=
EXTT4=
EXTT5=
EXTT6=
EXTT7=
EXTT8=
EXTT9=
EXTT10=
EXTT11=
EXTT12=
EXTT13=
PLAYORDER=
